<svg id="Layer_1" enableBackground="new 0 0 512 512" height="512" viewBox="0 0 512 512" width="512" xmlns="http://www.w3.org/2000/svg"><g><path d="m320 104v-101c0-1.657-1.343-3-3-3h-213c-22.091 0-40 17.909-40 40v432c0 22.091 17.909 40 40 40h304c22.091 0 40-17.909 40-40v-341c0-1.657-1.343-3-3-3h-101c-13.255 0-24-10.745-24-24zm-8 328h-176c-4.42 0-8-3.58-8-8s3.58-8 8-8h176c4.42 0 8 3.58 8 8s-3.58 8-8 8zm64-64h-240c-4.42 0-8-3.58-8-8s3.58-8 8-8h240c4.42 0 8 3.58 8 8s-3.58 8-8 8zm0-64h-240c-4.42 0-8-3.58-8-8s3.58-8 8-8h240c4.42 0 8 3.58 8 8s-3.58 8-8 8zm0-64h-240c-4.42 0-8-3.58-8-8s3.58-8 8-8h240c4.42 0 8 3.58 8 8s-3.58 8-8 8zm8-72c0 4.42-3.58 8-8 8h-240c-4.42 0-8-3.58-8-8s3.58-8 8-8h240c4.42 0 8 3.58 8 8z"/></g><path d="m336 11.31v92.69c0 4.418 3.582 8 8 8h92.69c6.246 0 11.31-5.064 11.31-11.31v-.005c0-3-1.192-5.876-3.313-7.997l-89.374-89.375c-2.121-2.121-4.998-3.313-7.998-3.313h-.005c-6.246 0-11.31 5.064-11.31 11.31z"/></svg>